<svg width="28" height="28" viewBox="0 0 28 28" fill="none" xmlns="http://www.w3.org/2000/svg">
<path d="M18.6667 22.1667C18.025 22.1667 17.4759 21.9384 17.0193 21.4819C16.5628 21.0253 16.3341 20.4758 16.3333 19.8334V8.16671C16.3333 7.52504 16.562 6.97593 17.0193 6.51938C17.4767 6.06282 18.0258 5.83415 18.6667 5.83338C19.3076 5.8326 19.8571 6.06126 20.3152 6.51938C20.7733 6.97749 21.0016 7.5266 21 8.16671V19.8334C21 20.475 20.7717 21.0245 20.3152 21.4819C19.8586 21.9392 19.3091 22.1675 18.6667 22.1667ZM9.33333 22.1667C8.69167 22.1667 8.14256 21.9384 7.686 21.4819C7.22944 21.0253 7.00078 20.4758 7 19.8334V8.16671C7 7.52504 7.22867 6.97593 7.686 6.51938C8.14333 6.06282 8.69244 5.83415 9.33333 5.83338C9.97422 5.8326 10.5237 6.06126 10.9818 6.51938C11.4399 6.97749 11.6682 7.5266 11.6667 8.16671V19.8334C11.6667 20.475 11.4384 21.0245 10.9818 21.4819C10.5253 21.9392 9.97578 22.1675 9.33333 22.1667Z" fill="#5786AA"/>
</svg>
