<svg width="29" height="28" viewBox="0 0 29 28" fill="none" xmlns="http://www.w3.org/2000/svg">
<path d="M22.977 15.7686C23.2471 15.5596 23.4657 15.2916 23.6161 14.985C23.7665 14.6784 23.8447 14.3414 23.8447 14C23.8447 13.6585 23.7665 13.3215 23.6161 13.0149C23.4657 12.7084 23.2471 12.4403 22.977 12.2313C19.4796 9.52599 15.5747 7.39321 11.4083 5.91263L10.6465 5.64196C9.1905 5.12513 7.65167 6.1098 7.4545 7.61363C6.90384 11.8534 6.90384 16.1465 7.4545 20.3863C7.65284 21.8901 9.1905 22.8748 10.6465 22.358L11.4083 22.0873C15.5747 20.6067 19.4796 18.4739 22.977 15.7686Z" fill="#5786AA"/>
</svg>
