<svg width="20" height="20" viewBox="0 0 20 20" fill="none" xmlns="http://www.w3.org/2000/svg">
<path d="M16.6666 6.18587V15.3209C16.6666 15.7042 16.5383 16.0245 16.2816 16.2817C16.0249 16.5389 15.7044 16.6673 15.3199 16.6667H4.67992C4.29603 16.6667 3.97575 16.5384 3.71909 16.2817C3.46242 16.025 3.33381 15.7045 3.33325 15.32V4.68004C3.33325 4.29615 3.46186 3.97587 3.71909 3.71921C3.97631 3.46254 4.29659 3.33393 4.67992 3.33337H13.8141L16.6666 6.18587ZM9.99659 13.7817C10.4583 13.7817 10.8519 13.62 11.1774 13.2967C11.503 12.9734 11.666 12.5809 11.6666 12.1192C11.6671 11.6575 11.5055 11.2637 11.1816 10.9375C10.8577 10.6114 10.4652 10.4487 10.0041 10.4492C9.54298 10.4498 9.14881 10.6112 8.82159 10.9334C8.49436 11.2556 8.33159 11.6487 8.33325 12.1125C8.33492 12.5764 8.49659 12.9703 8.81825 13.2942C9.13992 13.6181 9.5327 13.7812 9.99659 13.7834M5.64075 8.14171H11.8266V5.64171H5.64159L5.64075 8.14171Z" fill="#5786AA"/>
</svg>
